<!-- logo svg, inverted, on blue background, with text -->
<svg viewBox="0 0 124.05 98.95">
	<path fill="var(--jj-blue)" d="M121.1.52L2.95 21.35A3.58 3.58 130 000 24.87v71.08a2.52 2.52 40 002.95 2.48L121.1 77.6a3.58 3.58 130 002.95-3.53V3A2.52 2.52 40 00121.1.52z"/>
	<g fill="var(--jj-slate-gray)">
		<path d="M50.37 49.32c-3 2.65-7.55 9.29-5.16 14.11 2.38 4.82 11.3 4.33 13.49-2.37zm68.07 13.86V20.36l-15.46 2.52-.49 23.77c-.1 4.61-.55 9.66-3.4 13.05-2.84 3.1-6.73 4.65-10.43 5.32-4.1.7-8.8.33-11.7-.57v-8.81c3.5 2.17 7.03 2.03 10.1 1.5 5.13-.8 6.37-4.86 6.46-8.91l.45-23.75-35.8 6.3c-4.33.85-6.52 2.89-4.7 6.85 3.54 5.88 9.42 15.4 9.42 15.4L64.32 49s.2-1.55-.18-2.22c-.73-1.29-1.08-2.26-.1-5.06.94-2.68 2.79-2.78 4.59-3.05.2-.02.26.1.18.32L67.22 43c.36 1.58 2.96 2.84 4.24 1.86l1.56-3.95c.07-.21.23-.36.4-.16 1.3 1.46 2.24 2.78 1.42 5.21-.84 2.5-1.96 3.29-3.35 3.8-.72.28-1.57 1.6-1.57 1.6l-2.57 7.27 7.83 11.63c.36.52.53.51 1.13.41z"/>
		<path d="M118.44 6.66L6.02 26.48l.02 5.57 32.37-5.7v30.93c.4-5.03 5.02-11.1 8.12-13.65a16.84 16.84 0 01-2.65-5.97c-.65-3.7.18-6.9 2.51-9.6 2.33-2.7 5.86-4.16 11.62-5.17l60.4-10.65z"/>
		<path d="M65.73 72.11l-2.97-5.65c-2.78 3.07-3.69 4.43-10.05 5.63-4.75.9-12 .03-15.01-7.1V65c-.2 2.46-2.07 5.27-3.23 6.63A14.16 14.16 0 0130.1 75c-1.74.9-3.76 1.54-6.05 1.95-2.25.4-4.51.51-6.78.35-2.26-.15-4.4-.75-6.72-1.47V66.4a15.32 15.32 0 0011.89 2.67c2.35-.42 4-1.27 4.94-2.57.97-1.3 1.47-3.42 1.52-6.35l.36-24.27L6.1 40.37v42.76l59.46-10.55c.31-.02.33-.13.18-.47z"/>
		<path d="M11.43 87.43l-.22-.82-.28-1.1-.28-1.12h-.04l-.33 1.25-.32 1.2-.26.9zm.24.94l-2.28.4-.57 2L7.6 91l2.38-7.45 1.41-.25 2.05 6.67-1.28.23zm2.88-5.63l1.2-.22-.1 4.46q-.02.87.29 1.2.3.33.86.23t.9-.53q.32-.45.34-1.32l.1-4.46 1.16-.2-.1 4.36q-.03 1.45-.67 2.25-.62.79-1.76.99-1.11.2-1.74-.38-.62-.58-.58-2.03zm8-.36l-2.16.38.03-1.06 5.5-.97-.02 1.06-2.15.38-.13 6-1.21.2zm6.71 4.92q-.6.1-1.08-.06-.5-.17-.84-.58-.33-.43-.52-1.07-.18-.65-.16-1.5.02-.86.23-1.56.22-.72.58-1.25.36-.52.86-.86.5-.33 1.1-.44.59-.1 1.08.06.49.16.83.56.34.4.52 1.05.18.63.16 1.49-.02.86-.24 1.58-.2.7-.57 1.26-.36.53-.85.88-.5.33-1.1.44zm.02-1.1q.33-.05.6-.28.27-.23.46-.6.2-.37.31-.87.12-.5.13-1.1.03-1.18-.35-1.78-.37-.61-1.03-.5-.66.12-1.06.87-.4.74-.44 1.92-.01.6.07 1.06.1.46.28.77.18.3.44.44t.6.08zm10.42-7.9l2.3-.4q.56-.1 1.03-.08.47.03.8.22.35.2.54.59.19.37.16.99 0 .58-.2 1.05-.22.46-.57.82-.36.34-.84.56-.48.22-1.03.31l-1.08.2-.06 2.58-1.21.22zm2.12 3.08q1.5-.27 1.53-1.55.02-.67-.36-.85-.36-.2-1.12-.06l-.99.17-.05 2.46zm5.24-1.09l.93-.16q.71-.13 1.09-.5.37-.36.39-.97 0-.61-.36-.78-.36-.18-1.07-.05l-.94.16zm2.39 3.32l-1.4-2.5-1.02.18-.06 2.76-1.21.21.16-7.06 2.27-.4q.53-.1 1-.06.45.02.78.21.33.18.52.54.18.37.16.96-.01.81-.4 1.38-.37.56-1 .88l1.56 2.66zm4.8-.72q-.58.1-1.08-.06-.49-.17-.83-.58-.33-.42-.52-1.07-.18-.64-.16-1.5.02-.86.23-1.56.22-.72.58-1.24.36-.53.86-.86.5-.34 1.09-.44.6-.1 1.08.05.5.16.83.56.34.4.52 1.05.19.64.17 1.49-.02.86-.24 1.58-.2.71-.57 1.26-.36.53-.86.88-.5.34-1.1.44zm.03-1.09q.33-.06.6-.29.27-.23.46-.6.2-.37.3-.87.12-.5.14-1.1.02-1.18-.35-1.78-.38-.61-1.03-.5-.66.12-1.06.87-.41.74-.44 1.92-.01.6.07 1.07.1.45.28.77.18.3.44.43.26.14.6.08zm3.68-3.18q.02-.88.27-1.6.25-.72.67-1.27.43-.54 1-.9.57-.34 1.24-.46.68-.12 1.14.08.47.18.77.47l-.69.9q-.23-.22-.52-.33-.28-.1-.72-.03-.41.07-.75.32-.35.23-.6.6t-.4.87q-.14.5-.15 1.1-.04 1.2.42 1.8.46.6 1.38.44.27-.04.52-.16.26-.14.4-.31l.04-1.52-1.18.2.03-1.02 2.27-.4-.08 3.1q-.33.41-.89.75-.55.35-1.2.47-.65.1-1.21-.03-.55-.14-.94-.53-.4-.4-.62-1.03-.22-.64-.2-1.51zm7.84-1.63l.94-.17q.71-.12 1.09-.5.37-.36.39-.96 0-.62-.36-.79-.36-.17-1.07-.05l-.94.17zm2.4 3.31l-1.4-2.5-1.02.18-.07 2.76-1.2.21.16-7.05 2.27-.4q.53-.1.99-.07.46.03.79.22.33.17.51.54.19.36.17.96-.02.8-.4 1.37-.37.56-1 .88l1.56 2.66zm5.72-3.89l-.22-.82-.28-1.1-.27-1.12h-.04l-.33 1.25-.33 1.2-.26.9zm.24.94l-2.27.4-.57 2-1.23.22 2.37-7.45 1.42-.25 2.04 6.67-1.28.23zm2.9-5.64l1.24-.22.76 2.6.27 1.02h.03l.3-1.13.87-2.88 1.26-.22-.17 7.06-.99.17.07-3.13.04-.6.05-.75.06-.75.06-.61h-.03l-.53 1.82-.77 2.32-.58.1-.68-2.06-.44-1.65-.03.01q0 .25.03.6l.03.73.03.73v.6l-.07 3.13-.98.17zm6.24-1.1l1.25-.22.76 2.6.27 1.01h.03l.3-1.12.87-2.88 1.25-.22-.16 7.05-.99.18.07-3.13.04-.6.05-.75.06-.75.06-.61h-.03L86.6 73l-.77 2.31-.59.1-.67-2.06-.44-1.64h-.03q0 .25.03.6l.03.74.03.73v.6l-.07 3.13-.98.17zm6.23 4.88l1.65-.3.1-4.93-1.64.29.03-1.06 4.5-.8-.03 1.06-1.65.3-.1 4.94 1.64-.3-.02 1.06-4.5.8zm6.28-7.08l1.23-.22 1.73 3.65.6 1.39h.03q-.02-.55-.07-1.17-.05-.62-.04-1.22l.08-3.06 1.15-.2-.16 7.05-1.23.22-1.73-3.66-.6-1.38h-.04l.08 1.17q.05.6.03 1.2l-.06 3.08-1.16.2zm5.9 2.5q.02-.88.26-1.6.25-.72.67-1.27.43-.55 1-.9.58-.34 1.24-.46.68-.12 1.15.08.47.18.77.46l-.7.9q-.22-.2-.51-.32-.28-.11-.73-.03-.4.07-.75.31-.34.24-.6.61-.25.37-.4.87-.13.5-.15 1.09-.03 1.2.43 1.81.46.6 1.38.44.27-.05.52-.17.25-.13.4-.3l.04-1.53-1.18.21.02-1.02 2.27-.4-.07 3.1q-.34.4-.89.75t-1.2.46q-.65.12-1.22-.02-.55-.14-.94-.53-.4-.4-.61-1.04-.22-.63-.2-1.5z" font-family="'Source Code Pro'" font-size="10.58"/>
	</g>
</svg>
