<svg viewBox="0 0 424.89612 318.74027">
	<g fill="#2b0000">
		<path d="M167.60511287 161.23390341c-11.30510393 10.0249429-28.52631798 35.12302139-19.51162674 53.34507237 9.01471101 18.2215102 42.74521189 16.37786105 50.98509517-8.94437768zM424.88719363 213.63842094l-.00001048-161.82778746-58.42085442 9.5240117-1.86242942 89.81088642c-.39764524 17.45169919-2.07436917 36.5146608-12.87923485 49.34351231-10.7066846 11.67511885-25.39910472 17.57112252-39.37671168 20.1040268-15.51308462 2.62062416-33.24576459 1.2423723-44.26404266-2.14701627l-.0003063-33.32853127c13.22521266 8.20100897 26.6131624 7.69613632 38.18655373 5.71952698 19.39659268-3.0739701 24.07042692-18.4124702 24.40981594-33.70981514l1.7188365-89.78161414L197.072377 91.20732221c-16.3283411 3.1957483-24.6067092 10.8738886-17.7215355 25.86279346 13.36039052 22.20211166 35.58110783 58.20371755 35.58110783 58.20371755l5.39901132-15.23740328s.75671138-5.84159102-.68900932-8.4064808c-2.74044436-4.85674643-4.07422141-8.5271362-.35603943-19.11529384 3.54752993-10.10247793 10.51860145-10.48972214 17.3250372-11.52139954.7759163-.0673502.98460437.39596047.6784713 1.19328985l-5.98558855 15.19407393c1.35034282 6.00835497 11.1918824 10.74142472 16.03459606 7.06318565l5.87297315-14.956036c.25617061-.79838288.88239949-1.34551093 1.55328402-.60509086 4.861391 5.52258875 8.44924297 10.51544912 5.33619189 19.7126902-3.19467779 9.43798946-7.42907352 12.42246804-12.6498886 14.38190159-2.75510253 1.03821657-5.93137634 5.99808612-5.93137634 5.99808612l-9.73232367 27.48646678 29.61290138 43.9517552c1.35802486 1.97286236 1.99756542 1.96026154 4.27058624 1.56318934z"/>
		<path d="M424.89612865 5.7e-7l-424.8961316 74.920652.06134458 21.05531676 122.33389362-21.5707661.00022808 116.90887007c1.55066423-18.98888476 18.99555639-41.93496276 30.7171578-51.57848544-5.16369503-7.00284405-8.0476784-14.79555255-10.02125448-22.53974365-2.47378266-14.02951868.68875047-26.12736863 9.48812285-36.29471675 8.78585467-10.2444461 22.12426027-15.734678 43.90910866-19.5605832l228.28649178-40.25306784z"/>
		<path d="M225.67388412 247.39987002l-11.22314721-21.38486198c-10.51323459 11.6330257-13.94842669 16.76212774-37.9836653 21.27843168-17.97356226 3.44746685-45.3707204.11375768-56.75573419-26.78573681l-.0000038.01151416c-.7228467 9.27800238-7.81806213 19.92574551-12.21103105 25.04784157-4.39290544 5.12223839-9.88795357 9.37128266-16.48601367 12.74786178-6.59754792 3.37752502-14.22976193 5.8290083-22.89258972 7.35653695-8.50975277 1.50023037-17.04791219 1.93935799-25.61576104 1.3157669-8.55463323-.5469004-16.62065309-2.83993436-25.40028602-5.56047785l.00074397-35.57181465c14.09026341 10.04499462 29.20088814 12.69364128 44.9394368 10.06012654 8.8929767-1.56826362 15.1205448-4.80133834 18.68373757-9.69837015 3.63989661-4.91017298 5.54841345-12.91353479 5.72604114-24.01143842l1.37442857-91.72396586L.2680422 127.40457118.26802999 289.01805808l224.73254782-39.8728005c1.17396799-.07958618 1.24264179-.4597434.67329975-1.74542477z"/>
	</g>
	<path d="M20.42396826 305.30060474l-.83140536-3.10276539q-.51874395-2.02061104-1.058366-4.15940792-.53958048-2.13879687-1.0328315-4.2450898l-.15756851.02645669q-.60278174 2.3402079-1.24495372 4.68737013-.60972473 2.30082522-1.233343 4.52284729l-.9806249 3.42224886zm.90780851 3.53605043l-8.58749867 1.51419215-2.15829546 7.56978905-4.64827848.81962836 8.96889459-28.14493259 5.35734053-.94465513 7.7333897 25.19988689-4.845241.85432442zM32.2237857 287.5418518l4.56949423-.8057575-.40089449 16.8455057q-.06765354 3.3019087 1.08840568 4.56026461 1.1491238 1.21893545 3.23691216.85080946 2.1271786-.37492914 3.38097642-2.0177008 1.24685103-1.68207877 1.31450458-4.98398746l.40089449-16.8454679 4.37253548-.77102363-.3846274 16.47707734q-.12589607 5.50548668-2.5175887 8.52668986-2.35925293 2.97486617-6.6529966 3.73198114-4.21496698.7432063-6.58972732-1.43758112-2.33535876-2.18770396-2.20252349-7.65377016zM62.43323612 286.19554627l-8.11479316 1.43085356.1071496-3.99934493 20.79907299-3.66742681-.10714961 3.99934492-8.11478938 1.43085356-.51060662 22.67304592-4.56949422.80575749zM87.83187702 304.78753387q-2.24537955.39590552-4.09901107-.2112756-1.86054805-.64671496-3.15095436-2.20633703-1.2579893-1.60592127-1.97132979-4.03902996-.67394646-2.44002522-.59934237-5.70255124.0815622-3.22310555.87205797-5.88075597.82293544-2.70398743 2.17876537-4.68956226 1.35579214-1.98561262 3.24442209-3.25281263 1.88862994-1.26720002 4.13400949-1.66310553 2.24534176-.39590552 4.09897327.2112756 1.85359372.60737008 3.1370835 2.12757167 1.28348978 1.52023938 1.95741735 3.9602646.7063937 2.39372602.6248315 5.61683156-.0744567 3.26248823-.89756222 5.96647566-.78353386 2.6970331-2.16483782 4.7683654-1.3488756 2.0249575-3.23055121 3.331578-1.88862994 1.2672-4.1340095 1.66314332zm.08617323-4.11756855q1.22116537-.21543307 2.24545514-1.08638741 1.02428978-.87110552 1.75438112-2.25898585.72313702-1.42726301 1.16598427-3.29245988.43589292-1.90461735.4871811-4.1476158.1024252-4.4859591-1.3128945-6.75462054-1.42238741-2.30804412-3.90410083-1.87045041-2.4817134.4375937-4.01374492 3.26657011-1.53894805 2.78959373-1.64152443 7.27559063-.05140157 2.24296065.26116536 4.01563469.34507087 1.72626143 1.03997481 2.9035087.6880252 1.13778898 1.67274333 1.65463938.98471812.5168504 2.24526616.2944252zM127.29437824 270.77832405l8.6662678-1.5281008q2.12715593-.37492914 3.89049454-.27968504 1.80272128.08844094 3.07237798.8392063 1.30907718.74400001 2.01331656 2.20388034.69724725 1.42053545.62044725 3.7492158-.01889764 2.19662364-.80458584 3.95984885-.78572599 1.76326301-2.1344882 3.09773862-1.35571656 1.29505513-3.15624571 2.14057325-1.80748349.80609765-3.89525674 1.17422364l-4.09678114.7223811-.22374804 9.78754027-4.56948666.80575749zm8.02027095 11.62386155q5.6724662-1.00021419 5.75191187-5.8476851.0816378-2.53258586-1.33882206-3.2163402-1.38788033-.73009135-4.22411343-.22979528l-3.74226146.65986773-.18897638 9.29400955zM155.08811712 278.30631154l3.54531027-.62513387q2.6786646-.47228977 4.09923784-1.86005671 1.42061104-1.38780474 1.4649449-3.67014807.03779528-2.3217638-1.33655434-2.973052-1.37397167-.651326-4.05263627-.17914961l-3.54531027.62513386zm9.03507411 12.54156864l-5.28408194-9.46620483-3.8604095.68069292-.23092913 10.43863948-4.56948666.8057575.61772599-26.67242864 8.58750245-1.51419215q2.0090079-.35414173 3.73292603-.25209449 1.72395592.10204725 2.9866961.8137323 1.25578583.67211339 1.94607875 2.05322836.69033072 1.38111498.63904253 3.62407563-.06992126 3.0586205-1.52307403 5.18324415-1.4137701 2.11763152-3.75654808 3.34310555l5.87485991 10.05252295zM182.31156308 288.1282077q-2.24534175.39590552-4.09897327-.21127559-1.86058585-.64671497-3.15099216-2.20629923-1.25797797-1.60595908-1.971326-4.03906777-.67392757-2.44002522-.5993197-5.70251344.0816378-3.22314334.8720504-5.88079377.82295435-2.70398743 2.17874649-4.68956225 1.35579214-1.98557483 3.24442208-3.25281264 1.88866774-1.26720001 4.1340095-1.66310553 2.24534175-.39590551 4.09897327.2112756 1.85363151.60733229 3.1370835 2.12757167 1.28348977 1.5202016 1.95745513 3.96022682.70635592 2.393726.6248315 5.61683155-.07445669 3.26248823-.8975622 5.96647566-.78357167 2.6970331-2.16487562 4.7683654-1.34883781 2.0249575-3.23055122 3.331578-1.88862994 1.2672378-4.1339717 1.66314332zm.08617323-4.11756854q1.22116537-.21543308 2.24545515-1.08638742 1.02428977-.87110552 1.75438112-2.25894805.72313701-1.4273008 1.16598426-3.29249768.43589292-1.90461734.4871811-4.147578.1024252-4.4859969-1.3128567-6.75465834-1.42242521-2.30804411-3.90413862-1.8704504-2.48167562.4375937-4.01370713 3.2666079-1.53894805 2.78959373-1.64152443 7.27555283-.05140158 2.24296066.26116536 4.0156347.34507087 1.72629923 1.03997481 2.90350869.6880252 1.13778899 1.67274333 1.65467718.98468032.5168126 2.24522837.2944252zM196.30314749 271.9731839q.06765354-3.3018709 1.0087937-6.02672132.94114018-2.72481263 2.52634964-4.79145832 1.62459215-2.07360002 3.78897642-3.38944255 2.16438428-1.31584254 4.68548037-1.76035278 2.56047876-.45150237 4.31678745.29480315 1.78869923.7000441 2.91004727 1.76144884l-2.61188034 3.38498272q-.86880001-.78103938-1.9577953-1.19826143-1.0496126-.42417639-2.7434835-.12548032-1.53626458.27099213-2.83630869 1.19062678-1.30699843.88032757-2.27342364 2.3098583-.93399686 1.38319371-1.49502994 3.26929137-.5216126 1.87910553-.5729008 4.12206619-.12812598 4.57167879 1.61639058 6.86354653 1.73756222 2.25252286 5.20406934 1.64125986 1.0241764-.18066142 1.96036538-.63004725.96861733-.49583623 1.54106458-1.16526616l.12359055-5.74881266-4.45130083.7848945.08844095-3.87424256 8.58750245-1.51419214-.28422048 11.74779225q-1.27464568 1.52447246-3.3602268 2.82644412-2.08561892 1.30193388-4.56733234 1.73952758-2.44229294.43067717-4.56472446-.0888189-2.08301104-.52626142-3.563452-2.01172915-1.48044096-1.48550553-2.31197483-3.89775123-.83149607-2.4122457-.76384253-5.71415439zM225.94787222 265.8118358l3.54531027-.62513386q2.6786646-.47232756 4.09927564-1.8600567 1.42057324-1.38780475 1.4649449-3.67014808.03779527-2.3217638-1.33659215-2.9730898-1.37397166-.65132599-4.05263626-.1791496l-3.54531027.62513386zm9.03507411 12.54156865l-5.28404415-9.46624262-3.86044729.68073071-.23092913 10.43863949-4.56948667.80571969.61776379-26.67239084 8.58750245-1.51422994q2.0089701-.35414173 3.73292603-.25209449 1.72391813.10204725 2.9866583.8137323 1.25578584.67215118 1.94611656 2.05322836.69029292 1.38115277.63900473 3.62411343-.06992126 3.0586205-1.52307403 5.18320635-1.4137323 2.11766932-3.75651028 3.34310555l5.8748221 10.05252294zM256.62319853 263.65228933l-.83138268-3.1027276q-.51877796-2.02061104-1.05838112-4.1594457-.53956536-2.13875909-1.0328315-4.24508982l-.1576063.0264567q-.60275907 2.3402079-1.2449386 4.68737013-.6097134 2.30082522-1.23333545 4.52288508l-.98063623 3.42224886zm.90780474 3.53605043l-8.58750246 1.51422994-2.15829923 7.56978906-4.64825202.81962835 8.96889458-28.14497038 5.3573292-.94461733 7.7334048 25.19984909-4.845241.85436221zM268.46241756 245.88658205l4.72705517-.83349922 2.86722523 9.81112451 1.00289765 3.84423312.11829921-.02267717 1.16382993-4.22626776 3.2779087-10.89471508 4.72705517-.83349922-.61776379 26.67242863-3.74222366.65982993.27061418-11.8265954q.03779527-.94076222.1232126-2.29628979.08617323-1.35548978.19729134-2.79673704.10469291-1.48066773.22979528-2.84307404.12548031-1.3624819.24113386-2.3170772l-.11829922.02267717-2.00065514 6.85148984-2.92308664 8.76064261-2.20599688.38898898-2.55239058-7.79520008-1.66284096-6.20549298-.11829921.02267716q.0415748.92689135.11300787 2.2545638.07181103 1.32771026.12472441 2.78063626.08579528 1.4065134.11792126 2.74114019.03401575 1.33466458-.00377952 2.2754268l-.27061418 11.8266332-3.70287878.65291338zM292.08234852 241.7217694l4.72701738-.83349922 2.86730082 9.81112452 1.00289765 3.84419532.11792126-.02267717 1.16382993-4.22626776 3.2779465-10.89467728 4.72701737-.83353702-.617726 26.67242864-3.74226145.65986772.27061417-11.8266332q.03779528-.94072442.1232126-2.296252.08617323-1.35552757.19729134-2.79673703.10469292-1.48066773.22979528-2.84311184.12548032-1.3624819.24151182-2.3170772l-.11829922.02267717-2.00061734 6.85148984-2.92312444 8.7606804-2.20599688.3889512-2.55235278-7.7951623-1.66284096-6.20553077-.11829922.02267717q.04195276.92681575.11300788 2.2546016.07181102 1.32771025.12510236 2.78052286.08579528 1.4065134.1175433 2.74121578.03401576 1.33466458-.00377952 2.2754268l-.27061417 11.8266332-3.70287878.65291339zM315.62498815 260.15354283l6.22393707-1.09742363.40346458-18.67370099-6.22393708 1.09746143.10696063-3.99934493 17.0174364-3.00064255-.10696062 3.99934493-6.22397487 1.09746143-.40346458 18.67370099 6.22397487-1.09746143-.10696063 3.99938272-17.0173986 3.00060476zM339.36159313 233.385152l4.64828982-.81962836 6.53468983 13.7947844 2.26541105 5.24632447.11829921-.02267717q-.07823622-2.05761262-.28459843-4.37707091-.17348031-2.3658331-.12207874-4.60879375l.2728819-11.58330722 4.37257327-.77098583-.61776379 26.67239084-4.64828981.81962835-6.54168196-13.83416707-2.2978394-5.19998746-.1182992.02267716q.1247244 2.09007877.28459842 4.37710871.19880315 2.28007562.14777953 4.52307407l-.25889764 11.66207256-4.37253548.77102363zM361.64258865 242.81938202q.06765354-3.3019087 1.00879371-6.02672133.94117796-2.72481263 2.52638743-4.79145832 1.62459214-2.07363782 3.78893862-3.38948035 2.16442207-1.31580474 4.68551816-1.76031498 2.56047877-.45150237 4.31671186.29480315 1.78877482.7000441 2.91012287 1.76144884l-2.61191814 3.38498272q-.86876222-.78103938-1.9577953-1.19826143-1.0496126-.42417639-2.7434457-.12548032-1.53630238.27099213-2.83634648 1.19062678-1.30696065.88032757-2.27342365 2.3098583-.93399686 1.38319371-1.49499214 3.26929137-.5216126 1.87906774-.5729386 4.12206619-.12812598 4.57167879 1.61642837 6.86354653 1.73752443 2.25252286 5.20403155 1.64125986 1.02421419-.18066142 1.96036538-.63004725.96861733-.49583623 1.54106458-1.16530395l.12359056-5.74877487-4.45133863.7848945.08844094-3.87424256 8.58750246-1.51419215-.28422048 11.74779226q-1.27468348 1.52447246-3.3602646 2.82644412-2.08561892 1.30193388-4.56729454 1.73952758-2.44233074.43063938-4.56472446-.0888189-2.08308664-.52626142-3.5634898-2.01176695-1.48044096-1.48546773-2.31197483-3.89771343-.83149607-2.4122457-.76384253-5.71415439z"/>
</svg>
