<svg viewBox="0 0 124.05381 98.94832">
  <path fill="var(--jj-blue)" d="M121.0994.52093748L2.9544245 21.352793A3.5752521 3.5752521 130.00007 000 24.87373v71.074586a2.5172988 2.5172988 39.999999 002.9544232 2.479055L121.0994 77.595222a3.5752609 3.5752609 130 002.95442-3.520945V3A2.517305 2.517305 40.000068 00121.0994.52093748z"/>
  <g fill="var(--jj-slate-gray)">
    <path d="M50.36827396 49.31647002c-2.99114205 2.65243278-7.54758822 9.29296597-5.16245119 14.1142169 2.38514227 4.82110786 11.30967053 4.33330903 13.48980629-2.36653323zm68.0725498 13.86536178l-.00000278-42.81693497-15.45718423 2.51989473-.49276777 23.76246344c-.1052103 4.6174287-.5488435 9.66117057-3.40763086 13.05547083-2.83281026 3.08904183-6.72017971 4.64902611-10.41842152 5.31919036-4.10450359.69337347-8.79627511.328711-11.71152782-.56806471l-.00008104-8.8181738c3.4991708 2.16985026 7.04139914 2.03626938 10.10352556 1.5132915 5.1320151-.81332125 6.36863372-4.8716327 6.4584304-8.91905516l.45477548-23.75471849-35.80511833 6.31340841c-4.32020687.84554173-6.51052508 2.87704967-4.68882289 6.84286403 3.53493662 5.87430865 9.41416801 15.39973344 9.41416801 15.39973344l1.4284884-4.03156291s.20021322-1.54558761-.18230038-2.2242147c-.7250759-1.28501414-1.07797107-2.25613809-.0942021-5.0575881.93861729-2.67294725 2.7830466-2.77540561 4.58391605-3.04837026.20529452-.01781974.2605099.10476454.1795122.3157246l-1.58368696 4.02009869c.3572782 1.58971057 2.96118552 2.84200193 4.24248683 1.86880118l1.5538908-3.95711781c.06777847-.2112388.23346819-.35599977.41097305-.16009696 1.28624302 1.46118493 2.23552885 2.78221255 1.41186742 5.21564923-.84525849 2.49713468-1.96560901 3.28677796-3.34694965 3.80521142-.7289542.2746948-1.5693433 1.5869936-1.5693433 1.5869936l-2.57501062 7.27246092 7.83508007 11.62890177c.35931074.5219865.52852251.51865253 1.12992593.41359385z"/>
    <path d="M118.44318781 6.656667L6.02275401 26.47942266l.01623076 5.57088585 32.3675092-5.70726517.00006035 30.9321382c.4102799-5.02414236 5.02590757-11.0952921 8.1272479-13.64680745-1.36622762-1.8528358-2.12928154-3.91465657-2.65145687-5.96364044-.65452166-3.71197678.18223189-6.91286621 2.51039914-9.60297704 2.32459069-2.71050967 5.85371046-4.1631335 11.6176182-5.17540425l60.4008003-10.65029075z"/>
    <path d="M65.73230286 72.11454844l-2.96945767-5.658078c-2.78162662 3.07790467-3.69052119 4.43497958-10.04984467 5.62991831-4.75550496.91214226-12.00433631.03009839-15.01662118-7.08705945l-.000001.00304645c-.1912532 2.45480477-2.06852892 5.27202011-3.23083526 6.62724135-1.16228956 1.35525889-2.6161877 2.47948517-4.3619244 3.37287172-1.7456012.89363682-3.76495781 1.54225843-6.05699764 1.94641705-2.25153873.39693595-4.51059338.5131218-6.77750337.34812999-2.26341355-.1447007-4.39754794-.75139926-6.72049246-1.47120971l.00019684-9.4117092c3.72804902 2.6577381 7.72606843 3.35852585 11.89022605 2.66174176 2.3529334-.41493642 4.0006441-1.2703541 4.94340551-2.56602708.96305597-1.29914992 1.46801771-3.41670604 1.51501504-6.35302635l.36365089-24.26863237L6.0936743 40.36579267l-.00000325 42.7602346L65.55415723 72.5763489c.31061236-.02105718.3287823-.12164044.17814389-.4618103z"/>
  </g>
  <path d="M11.4265964 87.43411809l-.21997575-.82094055q-.13725089-.5346197-.28002582-1.10051025-.14276358-.5658895-.27326972-1.12317984l-.04168987.00699972q-.15948594.61918018-.32939395 1.24020008-.16132302.60875988-.32632194 1.19667032l-.25945696.90547036zm.24019078.93557987l-2.27210896.40063005-.57104913 2.00283927-1.22985704.21686002 2.3730201-7.4466794 1.41746301-.24994003 2.04612593 6.66746981-1.28197.2260398zm2.88184406-5.63424989l1.20901186-.21319055-.10606992 4.4570403q-.01790003.87362971.28797372 1.2065704.30403898.32250984.85643297.22510991.56281613-.09920007.89455067-.53385048.32989572-.4450501.34779546-1.31867976l.10607027-4.45703021 1.15689874-.20399957-.10176443 4.35955972q-.03331066 1.45666027-.66611195 2.25602014-.62421992.78709946-1.76027277.98742029-1.11521004.19663959-1.74353205-.38036037-.61789693-.57883005-.58275108-2.02506056zm7.99291763-.35621021l-2.14703963.37858.02835018-1.05815979 5.50308736-.97034074-.02834903 1.05816059-2.14703864.37857983-.13509758 5.99891037-1.20901262.21318967zm6.72005672 4.91913003q-.5940899.10475002-1.08453047-.05590051-.4922696-.17110983-.83368947-.58375997-.33284367-.42489948-.5215818-1.06865961-.17831452-.64558998-.15857544-1.50879973.02158016-.85278.23073235-1.55595063.21773473-.71543024.57646456-1.24078027.35872005-.52535947.85841992-.8606391.4996997-.3352806 1.0937896-.44003062.59408088-.10474944 1.08452029.05590028.49043001.16070012.83001982.56291959.33959074.40223047.51790016 1.04782032.1868978.6333404.16532355 1.48611936-.0197002.86319985-.23748063 1.57863002-.2073099.71359002-.57278003 1.2616302-.35688951.53576976-.8547501.88148047-.49969987.33527962-1.09379001.44003984zm.02280008-1.08944024q.32309972-.05699963.59410944-.28743988.27100984-.23047987.46418011-.59769028.19132995-.37763015.3084997-.87112983.11533064-.50392979.12890048-1.09739016.02710001-1.1869097-.3473743-1.78715905-.37634013-.61066966-1.03295971-.49488992-.65661959.11577975-1.06197015.86427953-.40717971.73808011-.43431957 1.92499988-.01360003.59345046.0690998 1.06247025.0912991.45673999.2751603.7682199.18203974.30104062.44257919.43778995.26054061.13675014.5940603.07789999zm10.41831974-7.90883014l2.29295037-.40431003q.56280946-.0991999 1.02935939-.0739996.47697052.02339943.81290055.22203958.3463596.19684988.53268977.58311015.18447941.3758505.16415954.9919804-.00499942.58118972-.21287933 1.04770917-.20789016.4665304-.56474994.81961052-.35870086.34265038-.83509048.56636023-.47822972.21327992-1.0306194.3106801l-1.08394012.19112993-.05920055 2.58962021-1.20900967.21318915zm2.12202987 3.07547983q1.50083995-.26463959 1.52186007-1.54719966.02160002-.67007982-.35423041-.85098999-.36720944-.19317044-1.11762918-.06080042l-.99014014.17459045-.04999985 2.45903972zm5.23173034-1.08369926l.93802938-.1653999q.7087301-.1249601 1.08459-.4921408.37587051-.36718966.38760078-.97105974.00999984-.61430005-.35363061-.78662022-.3635296-.17232982-1.07225998-.04740012l-.93803037.16540006zm2.39052938 3.3182892l-1.3980801-2.50459943-1.02139927.18010024-.06110022 2.76188925-1.20901048.2131903.16343995-7.05707995 2.27211074-.40063036q.53154975-.09369915.9876697-.06669936.45613014.02700003.7902298.21529993.33226068.17783018.51489982.54324977.18265033.36541965.16908072.95886983-.01850053.80926006-.40298 1.3714004-.37406048.56028998-.99391996.88452937l1.55439 2.65973029zm4.81234065-.71957921q-.59407989.10474926-1.08452028-.05590028-.49227979-.17111006-.8336999-.58375-.33284048-.4249102-.52158057-1.06867-.17831435-.64558898-.15856977-1.50879056.0215998-.85278955.2307298-1.55595933.21774081-.71543029.57646045-1.24078055.35871982-.52534928.85841974-.86064008.49971007-.33527939 1.09378978-.44002964.5940807-.10475043 1.08452029.05590028.49044044.16069016.83001982.56291958.33958999.40222045.51791059 1.04781037.1868876.63334017.16532355 1.48611936-.0197002.86319985-.23747965 1.57862984-.2073201.71358979-.57279023 1.26162997-.3568803.53577017-.8547501.88148047-.4997001.33528982-1.09377999.44003908zm.02280008-1.08944024q.32309955-.05700062.59410944-.28743988.27100984-.23047987.46417988-.5976801.19133018-.37764033.30849993-.87114002.11533064-.50392978.12890025-1.09737996.02710024-1.18691989-.347356-1.7871704-.3763505-.61067088-1.0329699-.49489015-.65661038.11578016-1.0619602.86428996-.4071797.7380801-.43432031 1.92498985-.01359922.5934493.06910079 1.06247008.09130084.45674984.2751593.76822008.18204056.30103946.44257995.43779997.26053065.1367397.5940501.07789975zm3.6791396-3.18490982q.01790032-.87362062.2669097-1.5945705.24901014-.72093985.6684303-1.26773951.4298399-.54864 1.00250018-.8967906.57265947-.34814944 1.23969954-.4657595.67746003-.11946057 1.14215033.07799967.47326002.18522017.76994999.46604994l-.6910596.89561057q-.2298708-.20665084-.51800014-.31704078-.27771043-.1122291-.7258808-.0331995-.40646961.0717-.75043916.31502026-.34581052.23291995-.60151023.6111499-.2471203.3659699-.39555985.86499953-.1380102.49718051-.15157998 1.0906297-.0338999 1.20959005.42767001 1.81598071.45973017.59597997 1.37690996.43424932.27097953-.04779928.5186797-.16670034.25628033-.13118561.40773998-.30831022l.0326999-1.5210403-1.17773993.20767037.02339965-1.02506028 2.27210992-.4006292-.07520004 3.10826995q-.33724966.40334958-.88905954.74782979-.55181983.34446978-1.2084404.4602497-.6461899.11394985-1.20775024-.0235004-.55112962-.1392397-.94282937-.53226977-.3917005-.39304008-.61171017-1.0312801-.21999946-.6382398-.20210366-1.51186876zm7.84349975-1.6301907l.93803037-.16540006q.70872953-.12496916 1.08459939-.49213942.3758603-.3671899.38760077-.97105974.00999983-.61430005-.35364058-.78663065-.36352959-.17232982-1.07225998-.04740012l-.93802938.16539989zm2.39053054 3.31829l-1.39807066-2.50460921-1.02140987.18010923-.06110004 2.76189022-1.20900926.21317994.1634499-7.05706952 2.27210999-.40064039q.53153938-.09370036.98766952-.06670034.45612013.02700078.79021979.21530068.33226026.17783939.51491001.54325.1826399.36542961.16907029.9588798-.01849955.80925988-.40297976 1.3713902-.3740507.56029942-.99390977.8845296l1.5543798 2.65973006zm5.72564948-3.8896694l-.21997483-.82092954q-.13726109-.53461995-.28002756-1.1005201-.14276283-.56587948-.27326971-1.12317984l-.0416981.00699913q-.15947937.61918004-.32938965 1.24020034-.16131986.60875932-.3263202 1.19668017l-.2594596.9054698zm.24019077.93557986l-2.27210917.40063923-.57104994 2.00284043-1.22985086.21685995 2.37302043-7.44668962 1.41746044-.24993043 2.0461296 6.66746002-1.28196985.22604994zm2.89227027-5.63609034l1.25070029-.22053017.7586195 2.59586005.26535222 1.0171194.0313037-.00599998.30793066-1.11820058.86727962-2.88256009 1.25070046-.22052919-.16345015 7.05707972-.99012988.1745795.07159986-3.12911954q.00999917-.24890983.03259956-.60756005.02279926-.3586396.05220054-.73997035.02770242-.39176019.06079935-.75222975.03319606-.36048908.0638006-.61305961l-.0313037.00599998-.52933914 1.81279013-.77340011 2.31791994-.58367042.10291988-.67531946-2.0624797-.43996078-1.64187031-.03130352.00600096q.0110025.24523917.02989895.5965206.01899945.35128965.03299605.73571038.02269633.37214048.03120393.7252588.00899716.35313051-.00100004.60204l-.07159992 3.12913073-.97971943.17274995zm6.2494402-1.10193984l1.25069008-.2205304.7586399 2.59586051.26535049 1.01710955.03120208-.00600034.30793084-1.1181996.8672894-2.88255064 1.2506905-.22053962-.16343995 7.05707995-.9901403.17458947.07160008-3.12912974q.0100009-.24889999.03259933-.60754986.02279753-.35864944.05220054-.73997034.02770242-.3917602.06079959-.75223995.03319605-.36048908.06390005-.61305989l-.03130351.00600097-.52933011 1.81278955-.77341037 2.31793088-.5836692.10290952-.67531065-2.06247009-.4399594-1.6418797-.03130368.00599999q.01110062.24521984.02990068.59653044.01899945.35128966.0331023.73567947.02269632.37214047.03109612.72528086.00899715.3531305-.00100005.60204l-.07160009 3.12912973-.97971942.17274996zm6.22899034 4.87673981l1.6467493-.29036023.10675052-4.94075013-1.64675052.2903706.02830037-1.05816013 4.50252986-.79391953-.02829955 1.05815898-1.64676071.29037037-.10674954 4.94074996 1.64675973-.2903702-.02829962 1.05817016-4.50252025.79391072zm6.28031-7.08247002l1.22986008-.21685954 1.72896909 3.64986938.59939041 1.38809016.03130352-.00600097q-.02070016-.54440925-.07529984-1.15809945-.04590412-.62595957-.03229999-1.21940974l.07220048-3.06475093 1.15690968-.20398932-.1634499 7.05706952-1.2298599.21686053-1.7308198-3.66029033-.60796981-1.3758301-.03130352.00600097q.0329988.55300013.0752996 1.15810965.05259594.60327085.03910007 1.19673036l-.0684996 3.08558988-1.15689973.20399974zm5.89517916 2.49613986q.01790072-.87362983.26691086-1.59456968.24901916-.72094043.66843933-1.2677401.42984014-.54865018 1.0024904-.89680003.57267023-.34814018 1.23970538-.46574936.67746808-.11946098 1.14213602.07799914.47327335.18522087.76996644.4660511l-.691068.895609q-.22985649-.20665031-.51800292-.31703927-.27770765-.1122306-.72586683-.03320094-.40648062.07170091-.75045035.3150202-.34580032.23292017-.60151022.6111499-.24711915.3659707-.39554949.86500074-.13801013.49716933-.15159017 1.09062947-.0338999 1.20959005.42768003 1.81597996.45971997.59597974 1.37689994.43425007.27098955-.04780003.5186797-.16670034.25628131-.13118579.40774038-.30831944l.03269672-1.52102958-1.17774717.20766962.02340063-1.02506045 2.27211073-.40063036-.07519691 3.10827042q-.33726282.40334986-.88907367.74783024-.55182082.34446995-1.20843021.46024993-.64619968.11394041-1.20775024-.0235004-.55114984-.13923918-.94284015-.53227903-.39169975-.39303006-.61170958-1.03127107-.22000045-.63823962-.20210366-1.51186875z" font-family="'Source Code Pro'" font-size="10.5833" font-style="italic" font-weight="600" style="line-height:1.25;-inkscape-font-specification:'Source Code Pro Semi-Bold'"/>
</svg>
